<?xml version="1.0" encoding="utf-8"?>
<!-- Generator: Adobe Illustrator 21.0.2, SVG Export Plug-In . SVG Version: 6.00 Build 0)  -->
<svg version="1.1" id="Layer_1" xmlns="http://www.w3.org/2000/svg" xmlns:xlink="http://www.w3.org/1999/xlink" x="0px" y="0px"
	 viewBox="0 0 713.3 222.5" style="enable-background:new 0 0 713.3 222.5;" xml:space="preserve">
<style type="text/css">
	.st0{fill:#FFFFFF;}
	.st1{fill:#474747;}
	.st2{fill:#362924;}
	.st3{fill:#171A19;}
	.st4{opacity:5.000000e-02;}
	.st5{fill:#EBEDEC;}
	.st6{opacity:0.5;}
	.st7{opacity:0.5;fill:#BBEAD9;enable-background:new    ;}
	.st8{opacity:0.75;fill:#BBEAD9;enable-background:new    ;}
	.st9{fill:#BBEAD9;}
	.st10{fill:#256F5B;}
	.st11{opacity:0.1;}
	.st12{fill:#DDF2EB;}
	.st13{fill:none;stroke:#414349;stroke-width:1.2657;stroke-linecap:round;stroke-miterlimit:10;}
	.st14{fill:none;stroke:#6D6E71;stroke-width:1.2657;stroke-linecap:round;stroke-miterlimit:10;}
	.st15{fill:none;stroke:#DCDFE5;stroke-width:0.2531;stroke-linecap:round;stroke-miterlimit:10;}
	.st16{fill:#414349;}
	.st17{fill:#6D6E71;}
	.st18{fill:#DCDFE5;}
	.st19{fill:#110F0E;}
	.st20{fill:#77655F;}
	.st21{fill:#FDFFFF;}
</style>
<g>
	<g id="logo">
		<g>
			<g>
				<path class="st0" d="M445.5,61.9c6.6,0,12.9,1.3,18.8,3.8c5.9,2.5,11.1,6,15.6,10.5s8,9.7,10.5,15.6s3.8,12.2,3.8,18.8
					c0,6.8-1.3,13.1-3.8,18.9c-2.5,5.8-6,11-10.5,15.5s-9.7,8-15.6,10.5s-12.2,3.8-18.8,3.8c-7.1,0-13.8-1.4-20.2-4.3
					s-11.9-7-16.6-12.3c-0.6-0.6-0.9-1.4-0.9-2.6V81.2v-0.4V3.7c0-2.5,1.2-3.7,3.7-3.7c2.3,0,3.5,1.2,3.5,3.7v68.9
					c4.3-3.3,9.1-5.9,14.3-7.8C434.5,62.8,439.9,61.9,445.5,61.9z M445.5,152.1c5.6,0,11-1.1,16-3.2c5.1-2.2,9.5-5.1,13.3-8.9
					s6.8-8.2,9-13.2s3.2-10.5,3.2-16.2c0-5.8-1.1-11.2-3.2-16.2c-2.2-5.1-5.2-9.5-9-13.2c-3.8-3.8-8.3-6.7-13.3-8.9
					c-5.1-2.2-10.4-3.2-16-3.2c-5.9,0-11.5,1.2-16.8,3.5s-9.9,5.6-13.8,9.7V139c3.9,4.2,8.5,7.4,13.8,9.7S439.6,152.1,445.5,152.1z"
					/>
				<path class="st1" d="M560.7,157.3c-6.8,0-13.2-1.3-19.2-3.8s-11.2-6-15.7-10.5s-8-9.7-10.6-15.7s-3.9-12.4-3.9-19.2
					c0-6.8,1.3-13.2,3.9-19.2s6.1-11.2,10.6-15.6s9.7-7.9,15.7-10.5s12.4-3.9,19.2-3.9s13.2,1.3,19.2,3.9c6,2.6,11.2,6.1,15.6,10.5
					c4.4,4.4,7.9,9.6,10.5,15.6s3.9,12.4,3.9,19.2c0,6.8-1.3,13.2-3.9,19.2c-2.6,6-6.1,11.2-10.5,15.7s-9.6,8-15.6,10.5
					C573.9,156.1,567.5,157.3,560.7,157.3z"/>
				<path class="st0" d="M648.4,157.7c-5.2-1.9-10-4.5-14.3-7.8v68.9c0,2.5-1.2,3.7-3.5,3.7c-2.5,0-3.7-1.2-3.7-3.7v-77.1v-0.4V82.4
					c0-1.2,0.3-2,0.9-2.6c4.6-5.3,10.1-9.5,16.6-12.3s13.2-4.3,20.2-4.3c6.6,0,12.9,1.3,18.8,3.8c5.9,2.5,11.1,6,15.6,10.5
					s8,9.6,10.5,15.5c2.5,5.8,3.8,12.2,3.8,18.9c0,6.6-1.3,12.9-3.8,18.8s-6,11.1-10.5,15.6s-9.7,8-15.6,10.5
					c-5.9,2.5-12.2,3.8-18.8,3.8C659,160.5,653.6,159.6,648.4,157.7z M647.9,73.7c-5.3,2.3-9.9,5.6-13.8,9.7v56.7
					c3.9,4.2,8.5,7.4,13.8,9.7s10.9,3.5,16.8,3.5c5.6,0,11-1.1,16-3.2c5.1-2.2,9.5-5.1,13.3-8.9s6.8-8.2,9-13.2
					c2.2-5.1,3.2-10.5,3.2-16.2c0-5.8-1.1-11.2-3.2-16.2c-2.2-5.1-5.2-9.5-9-13.2c-3.8-3.8-8.3-6.7-13.3-8.9
					c-5.1-2.2-10.4-3.2-16-3.2C658.7,70.2,653.1,71.4,647.9,73.7z"/>
			</g>
			<path class="st0" d="M37.7,62.9c6.6,0,12.9,1.3,18.8,3.8s11.1,6,15.6,10.5s8,9.7,10.5,15.6s3.8,12.2,3.8,18.8
				c0,6.8-1.3,13.1-3.8,18.9c-2.5,5.8-6,11-10.5,15.5s-9.7,8-15.6,10.5s-12.2,3.8-18.8,3.8c-7.1,0-13.8-1.4-20.2-4.3
				s-11.9-7-16.6-12.3c-0.6-0.6-0.9-1.4-0.9-2.6V82.2v-0.4V4.7C0,2.2,1.2,1,3.7,1C6,1,7.2,2.2,7.2,4.7v68.9
				c4.3-3.3,9.1-5.9,14.3-7.8S32.1,62.9,37.7,62.9z M37.7,153.2c5.6,0,11-1.1,16-3.2c5-2.2,9.5-5.1,13.3-8.9c3.8-3.8,6.8-8.2,9-13.2
				s3.2-10.5,3.2-16.2c0-5.8-1.1-11.2-3.2-16.2c-2.2-5.1-5.2-9.5-9-13.2c-3.8-3.8-8.3-6.7-13.3-8.9c-5.1-2.2-10.4-3.2-16-3.2
				c-5.9,0-11.5,1.2-16.8,3.5C15.6,76,11,79.3,7.1,83.4v56.7c3.9,4.2,8.5,7.4,13.8,9.7C26.2,152,31.8,153.2,37.7,153.2z
				 M151.6,159.9c-6.8,0-13.1-1.3-18.9-3.8c-5.8-2.5-11-6-15.5-10.5s-8-9.6-10.5-15.5c-2.5-5.8-3.8-12.2-3.8-18.9
				c0-6.6,1.3-12.9,3.8-18.8s6-11.1,10.5-15.6s9.6-8,15.5-10.5c5.8-2.5,12.2-3.8,18.9-3.8c5.6,0,11,0.9,16.2,2.8
				c5.2,1.9,9.9,4.5,14.1,7.8s7.8,7.3,10.7,11.9c3,4.6,5.1,9.7,6.4,15.4v0.6c0,1.2-0.3,2.1-1,2.8c-0.6,0.7-1.5,1.1-2.5,1.1h-85.1
				c-0.1,1-0.3,2-0.3,3c-0.1,1-0.1,2.1-0.1,3.2c0,5.8,1.1,11.2,3.2,16.2c2.2,5.1,5.1,9.5,8.9,13.2c3.8,3.8,8.2,6.7,13.2,8.9
				c5.1,2.2,10.5,3.2,16.2,3.2c7.1,0,13.7-1.7,19.8-5s11.1-7.9,14.8-13.9c0.6-0.9,1.4-1.4,2.4-1.6s1.9,0,2.6,0.5c2,1.3,2.4,3,1.1,5
				c-4.6,6.9-10.5,12.3-17.6,16.2C167.5,158,159.8,159.9,151.6,159.9z M112.2,97.8h78.6c-2.9-8.4-7.9-15.2-14.9-20.4
				c-7.1-5.2-15.2-7.8-24.3-7.8c-4.6,0-9,0.7-13.1,2.2c-4.1,1.4-7.9,3.4-11.4,5.8c-3.5,2.5-6.5,5.4-9,8.9
				C115.6,90,113.6,93.7,112.2,97.8z M387.3,137.4c2,1,2.7,2.7,2,5c-2,4.6-5.2,8.3-9.4,11.2c-4.3,2.8-8.9,4.2-14,4.2
				c-3.5,0-6.7-0.7-9.9-2.1c-3.1-1.4-5.8-3.2-8.1-5.4c-2.3-2.2-4.1-4.9-5.4-8s-1.9-6.4-1.9-9.9V132v-0.4V65.3h-5c-1,0-1.9-0.3-2.6-1
				c-0.7-0.6-1.1-1.6-1.1-2.7c0-1,0.4-1.9,1.1-2.6c0.7-0.7,1.6-1.1,2.6-1.1h5V4.4c0-1,0.4-1.9,1.1-2.6s1.6-1.1,2.6-1.1
				s1.9,0.4,2.6,1.1s1.1,1.6,1.1,2.6v53.5h20.1c1,0,1.9,0.4,2.6,1.1c0.7,0.7,1.1,1.6,1.1,2.6c0,1.2-0.4,2.1-1.1,2.7s-1.6,1-2.6,1
				H348v66.3v0.4v0.4c0,5.1,1.7,9.3,5.2,12.8s7.7,5.2,12.8,5.2c3.8,0,7.1-1,10.1-3s5.2-4.7,6.6-8c0.3-0.9,0.9-1.5,1.8-1.8
				C385.3,137.2,386.3,137.1,387.3,137.4z M264.8,62.5c6.8,0,13.1,1.3,18.9,3.8c5.8,2.5,11,6,15.5,10.5s8,9.6,10.5,15.5
				c2.5,5.8,3.8,12.2,3.8,18.9c0,6.6-1.3,12.9-3.8,18.8s-6,11.1-10.5,15.6s-9.6,8-15.5,10.5c-5.8,2.5-12.2,3.8-18.9,3.8
				c-5.6,0-11-0.9-16.2-2.8s-9.9-4.5-14.1-7.8s-7.8-7.3-10.7-11.9c-3-4.6-5.1-9.7-6.4-15.4v-0.6c0-1.2,0.3-2.1,1-2.8
				c0.6-0.7,1.5-1.1,2.5-1.1H306c0.1-1,0.3-2,0.3-3c0.1-1,0.1-2.1,0.1-3.2c0-5.8-1.1-11.2-3.2-16.2c-2.2-5.1-5.1-9.5-8.9-13.2
				c-3.8-3.8-8.2-6.7-13.2-8.9c-5.1-2.2-10.5-3.2-16.2-3.2c-7.1,0-13.7,1.7-19.8,5s-11.1,7.9-14.8,13.9c-0.6,0.9-1.4,1.4-2.4,1.6
				s-1.9,0-2.6-0.5c-2-1.3-2.4-3-1.1-5c4.6-6.9,10.5-12.3,17.6-16.2C248.9,64.4,256.6,62.5,264.8,62.5z M304.2,124.6h-78.6
				c2.9,8.4,7.9,15.2,14.9,20.4c7.1,5.2,15.2,7.8,24.3,7.8c4.6,0,9-0.7,13.1-2.2c4.1-1.4,7.9-3.4,11.4-5.8c3.5-2.5,6.5-5.4,9-8.9
				C300.8,132.4,302.8,128.6,304.2,124.6z"/>
		</g>
		<g id="vinyl_2_">
			<g id="vinyl_1_">
				<circle class="st2" cx="560.5" cy="108.2" r="50.6"/>
				<path class="st3" d="M560.5,156.8c-26.8,0-48.6-21.8-48.6-48.6s21.8-48.6,48.6-48.6s48.6,21.8,48.6,48.6
					S587.3,156.8,560.5,156.8z"/>
				<g class="st4">
					<g>
						<path class="st5" d="M560.5,113.6c-3,0-5.4-2.4-5.4-5.4s2.4-5.4,5.4-5.4s5.4,2.4,5.4,5.4S563.5,113.6,560.5,113.6z
							 M560.5,103.5c-2.6,0-4.7,2.1-4.7,4.7s2.1,4.7,4.7,4.7s4.7-2.1,4.7-4.7S563.1,103.5,560.5,103.5z"/>
					</g>
					<g>
						<path class="st5" d="M560.5,113.9c-2.2,0-4.3-1.3-5.2-3.4c-0.6-1.4-0.6-2.9-0.1-4.3c0.6-1.4,1.6-2.5,3-3.1s2.9-0.6,4.3-0.1
							c1.4,0.6,2.5,1.6,3.1,3c1.2,2.9-0.1,6.2-2.9,7.5l0,0C562,113.7,561.2,113.9,560.5,113.9z M560.5,103.3c-0.7,0-1.3,0.1-2,0.4
							c-1.2,0.5-2.1,1.5-2.6,2.7s-0.5,2.6,0.1,3.8c1.1,2.5,4,3.6,6.5,2.5s3.6-4,2.5-6.5c-0.5-1.2-1.5-2.1-2.7-2.6
							C561.7,103.4,561.1,103.3,560.5,103.3z"/>
					</g>
					<g>
						<path class="st5" d="M560.5,114.8c-1.8,0-3.6-0.7-4.9-2.2c-2.5-2.7-2.3-6.9,0.4-9.4c1.3-1.2,3-1.8,4.8-1.7
							c1.8,0.1,3.4,0.9,4.6,2.2c1.2,1.3,1.8,3,1.7,4.8s-0.9,3.4-2.2,4.6C563.7,114.3,562.1,114.8,560.5,114.8z M560.5,102.3
							c-1.5,0-2.9,0.5-4,1.5c-2.4,2.2-2.6,5.9-0.4,8.3c2.2,2.4,5.9,2.6,8.3,0.4l0,0c1.2-1.1,1.8-2.5,1.9-4.1
							c0.1-1.6-0.5-3.1-1.5-4.2c-1.1-1.2-2.5-1.8-4.1-1.9C560.7,102.3,560.6,102.3,560.5,102.3z"/>
					</g>
					<g>
						<path class="st5" d="M560.5,116.3c-1.6,0-3.2-0.5-4.6-1.5c-3.7-2.6-4.6-7.6-2-11.3c1.2-1.8,3.1-3,5.2-3.3
							c2.1-0.4,4.3,0.1,6.1,1.3c1.8,1.2,3,3.1,3.3,5.2c0.4,2.1-0.1,4.3-1.3,6.1C565.5,115.1,563,116.3,560.5,116.3z M560.5,100.8
							c-0.4,0-0.9,0-1.3,0.1c-1.9,0.3-3.6,1.4-4.7,3c-2.3,3.3-1.5,7.9,1.8,10.2c3.3,2.3,7.9,1.5,10.2-1.8s1.5-7.9-1.8-10.2
							C563.4,101.3,562,100.8,560.5,100.8z"/>
					</g>
					<g>
						<path class="st5" d="M560.5,118c-1.5,0-3-0.3-4.4-1c-2.3-1.2-4.1-3.2-4.9-5.7c-0.8-2.5-0.6-5.1,0.5-7.5
							c2.4-4.8,8.3-6.8,13.2-4.4c4.8,2.4,6.8,8.3,4.4,13.2c-1.2,2.3-3.2,4.1-5.7,4.9C562.6,117.8,561.5,118,560.5,118z M560.5,99.1
							c-3.3,0-6.5,1.8-8.1,5c-1.1,2.2-1.3,4.6-0.5,6.9s2.4,4.2,4.5,5.2c2.2,1.1,4.6,1.3,6.9,0.5c2.3-0.8,4.2-2.4,5.2-4.5l0,0
							c2.2-4.5,0.4-9.9-4-12.1C563.2,99.4,561.9,99.1,560.5,99.1z"/>
					</g>
					<g>
						<path class="st5" d="M560.5,119.9c-1.4,0-2.8-0.2-4.1-0.8c-6-2.3-9-9-6.8-15c1.1-2.9,3.3-5.2,6.1-6.5s6-1.4,8.9-0.3
							c6,2.3,9,9,6.8,15l0,0C569.6,117,565.2,119.9,560.5,119.9z M560.5,97.3c-1.5,0-3,0.3-4.5,1c-2.7,1.2-4.7,3.4-5.7,6.1
							c-2.1,5.6,0.7,11.9,6.3,14.1c5.6,2.1,11.9-0.7,14.1-6.3c2.1-5.6-0.7-11.9-6.3-14.1C563.1,97.5,561.8,97.3,560.5,97.3z"/>
					</g>
					<g>
						<path class="st5" d="M560.5,121.8c-1.3,0-2.6-0.2-3.9-0.6c-7.2-2.2-11.3-9.7-9.1-16.9c2.2-7.2,9.7-11.3,16.9-9.1
							c7.2,2.2,11.3,9.7,9.1,16.9C571.7,118,566.3,121.8,560.5,121.8z M560.5,95.4c-5.5,0-10.6,3.6-12.3,9.1c-2,6.8,1.8,13.9,8.6,16
							c6.8,2,13.9-1.8,16-8.6c2-6.8-1.8-13.9-8.6-16C562.9,95.5,561.7,95.4,560.5,95.4z"/>
					</g>
					<g>
						<path class="st5" d="M560.5,123.8c-1.2,0-2.5-0.1-3.7-0.4c-4-1-7.5-3.5-9.6-7c-2.2-3.6-2.8-7.7-1.8-11.8
							c2-8.3,10.5-13.5,18.8-11.5s13.5,10.5,11.5,18.8c-1,4-3.5,7.5-7,9.6C566.1,123,563.3,123.8,560.5,123.8z M560.5,93.4
							c-6.7,0-12.8,4.6-14.4,11.3c-0.9,3.8-0.3,7.8,1.7,11.2c2.1,3.4,5.3,5.8,9.2,6.7c3.8,0.9,7.8,0.3,11.2-1.7
							c3.4-2.1,5.8-5.3,6.7-9.2l0,0c1.9-7.9-3-16-10.9-17.9C562.8,93.5,561.6,93.4,560.5,93.4z"/>
					</g>
					<g>
						<path class="st5" d="M560.5,125.8c-1.1,0-2.3-0.1-3.5-0.3c-9.5-1.9-15.7-11.2-13.8-20.7c0.9-4.6,3.6-8.6,7.5-11.2
							s8.6-3.5,13.2-2.6c9.5,1.9,15.7,11.2,13.8,20.7l0,0C576.1,120,568.7,125.8,560.5,125.8z M560.4,91.4c-3.3,0-6.5,1-9.3,2.8
							c-3.7,2.5-6.3,6.3-7.2,10.7c-1.8,9.1,4.1,18,13.2,19.8c9.1,1.8,18-4.1,19.8-13.2l0,0c1.8-9.1-4.1-18-13.2-19.8
							C562.7,91.5,561.6,91.4,560.4,91.4z"/>
					</g>
					<g>
						<path class="st5" d="M560.5,127.8c-1.1,0-2.1-0.1-3.2-0.3c-5.2-0.9-9.7-3.7-12.7-8s-4.3-9.5-3.4-14.6c0.9-5.2,3.7-9.7,8-12.7
							s9.5-4.3,14.6-3.4c10.7,1.8,17.9,11.9,16.1,22.6C578.2,121,569.9,127.8,560.5,127.8z M560.4,89.3c-3.9,0-7.7,1.2-10.9,3.5
							c-4.1,2.9-6.8,7.3-7.6,12.3s0.3,10,3.3,14.1c2.9,4.1,7.3,6.8,12.3,7.6c5,0.8,10-0.3,14.1-3.3c4.1-2.9,6.8-7.3,7.6-12.3
							l0.4,0.1l-0.4-0.1c1.7-10.3-5.2-20-15.5-21.7C562.5,89.4,561.5,89.3,560.4,89.3z"/>
					</g>
					<g>
						<path class="st5" d="M560.5,129.9c-1,0-2-0.1-3-0.2c-5.7-0.8-10.8-3.8-14.3-8.4s-5-10.3-4.2-16.1c0.8-5.7,3.8-10.8,8.4-14.3
							c4.6-3.5,10.3-5,16.1-4.2c11.8,1.7,20.1,12.6,18.5,24.5C580.4,122,571.1,129.9,560.5,129.9z M560.5,87.3
							c-10.3,0-19.2,7.6-20.7,18c-1.6,11.4,6.4,22,17.8,23.6c11.4,1.6,22-6.4,23.6-17.8l0.4,0.1l-0.4-0.1c1.6-11.4-6.4-22-17.8-23.6
							C562.4,87.3,561.4,87.3,560.5,87.3z"/>
					</g>
					<g>
						<path class="st5" d="M560.5,131.9c-0.9,0-1.9-0.1-2.8-0.2c-13-1.5-22.3-13.4-20.8-26.4c0.7-6.3,3.9-11.9,8.9-15.9
							c5-3.9,11.2-5.7,17.5-4.9c13,1.5,22.3,13.4,20.8,26.4l0,0C582.6,123,572.4,131.9,560.5,131.9z M560.4,85.2
							c-5.1,0-10.1,1.7-14.2,4.9c-4.8,3.8-7.9,9.3-8.6,15.4c-1.5,12.6,7.5,24,20.1,25.5s24-7.5,25.5-20.1s-7.5-24-20.1-25.5
							C562.3,85.3,561.3,85.2,560.4,85.2z"/>
					</g>
					<g>
						<path class="st5" d="M560.5,134c-0.9,0-1.7,0-2.6-0.1c-6.9-0.7-13-4-17.4-9.3s-6.4-12.1-5.7-18.9c0.7-6.9,4-13,9.3-17.4
							s12.1-6.4,18.9-5.7c14.2,1.4,24.5,14.1,23.1,28.3c-0.7,6.9-4,13-9.3,17.4C572.2,132,566.5,134,560.5,134z M560.5,83.1
							c-12.7,0-23.6,9.7-24.9,22.6c-0.7,6.7,1.3,13.2,5.5,18.4s10.2,8.4,16.9,9.1c13.7,1.4,26.1-8.7,27.4-22.4
							c1.4-13.8-8.7-26.1-22.4-27.4C562.1,83.2,561.3,83.1,560.5,83.1z"/>
					</g>
					<g>
						<path class="st5" d="M560.5,136.1c-0.8,0-1.6,0-2.4-0.1c-7.4-0.6-14.2-4.1-19-9.8s-7.1-12.9-6.5-20.3
							c1.3-15.3,14.8-26.7,30.2-25.5c15.3,1.3,26.7,14.8,25.5,30.2C587.1,125.1,574.8,136.1,560.5,136.1z M560.5,81
							c-13.9,0-25.8,10.7-27,24.9c-0.6,7.2,1.6,14.3,6.3,19.8c4.7,5.5,11.2,8.9,18.5,9.5c14.9,1.3,28.1-9.8,29.3-24.8h0.4h-0.4
							c1.3-14.9-9.8-28.1-24.8-29.3C562,81.1,561.2,81,560.5,81z"/>
					</g>
					<g>
						<path class="st5" d="M560.5,138.2c-0.7,0-1.4,0-2.2-0.1c-8-0.6-15.3-4.2-20.5-10.3c-5.2-6.1-7.8-13.8-7.3-21.8
							c0.6-8,4.2-15.3,10.3-20.5s13.8-7.8,21.8-7.3c16.5,1.2,29,15.6,27.8,32C589.3,126.1,576.1,138.2,560.5,138.2z M560.4,79
							c-7,0-13.7,2.5-19.1,7.1c-5.9,5.1-9.5,12.2-10,20c-0.6,7.8,2,15.3,7.1,21.2c5.1,5.9,12.2,9.5,20,10
							c16.1,1.1,30.1-11,31.2-27.1c1.1-16.1-11-30.1-27.1-31.2C561.9,79,561.1,79,560.4,79z"/>
					</g>
					<g>
						<path class="st5" d="M560.5,140.3c-0.6,0-1.3,0-1.9-0.1c-17.7-1.1-31.2-16.3-30.1-33.9c0.5-8.6,4.3-16.4,10.7-22.1
							s14.7-8.5,23.2-8c8.6,0.5,16.4,4.3,22.1,10.7c5.7,6.4,8.5,14.7,8,23.2C591.5,127.1,577.3,140.3,560.5,140.3z M560.4,76.9
							c-7.7,0-15,2.8-20.7,7.9c-6.3,5.6-10,13.2-10.5,21.6c-1,17.2,12.1,32.1,29.4,33.1c8.4,0.5,16.4-2.3,22.7-7.8
							c6.3-5.6,10-13.2,10.5-21.6h0.4h-0.4c0.5-8.4-2.3-16.4-7.8-22.7c-5.6-6.3-13.2-10-21.6-10.5C561.7,76.9,561.1,76.9,560.4,76.9
							z"/>
					</g>
					<g>
						<path class="st5" d="M560.5,142.4c-0.6,0-1.2,0-1.7,0c-18.8-0.9-33.4-17-32.4-35.8c0.9-18.8,17-33.4,35.8-32.4
							c9.1,0.5,17.5,4.4,23.6,11.2s9.2,15.5,8.8,24.6c-0.5,9.1-4.4,17.5-11.2,23.6C577.1,139.3,569,142.4,560.5,142.4z M560.5,74.8
							c-17.7,0-32.5,13.9-33.4,31.7c-0.9,18.4,13.3,34.1,31.7,35c8.9,0.4,17.5-2.6,24.1-8.6s10.5-14.2,11-23.1
							c0.4-8.9-2.6-17.5-8.6-24.1s-14.2-10.5-23.1-11C561.6,74.8,561,74.8,560.5,74.8z"/>
					</g>
					<g>
						<path class="st5" d="M560.5,144.5c-0.5,0-1,0-1.5,0c-20-0.8-35.6-17.8-34.7-37.7c0.8-20,17.8-35.6,37.7-34.7
							c20,0.8,35.6,17.8,34.8,37.7C595.9,129.2,579.8,144.5,560.5,144.5z M560.4,72.7c-8.9,0-17.4,3.3-24,9.4
							c-7,6.4-11,15.2-11.4,24.7c-0.8,19.6,14.5,36.1,34,36.9c0.5,0,1,0,1.5,0c18.9,0,34.7-15,35.5-34.1c0.4-9.5-2.9-18.5-9.4-25.5
							c-6.4-7-15.2-11-24.7-11.4C561.4,72.7,560.9,72.7,560.4,72.7z"/>
					</g>
					<g>
						<path class="st5" d="M560.5,146.6c-0.4,0-0.9,0-1.3,0c-21.1-0.7-37.8-18.5-37.1-39.6c0.3-10.2,4.7-19.7,12.1-26.7
							c7.5-7,17.3-10.7,27.5-10.3c10.2,0.3,19.7,4.7,26.7,12.1c7,7.5,10.7,17.2,10.3,27.5c-0.3,10.2-4.7,19.7-12.1,26.7
							C579.5,142.9,570.3,146.6,560.5,146.6z M560.5,70.6c-9.6,0-18.6,3.6-25.7,10.1c-7.3,6.9-11.6,16.2-11.9,26.2
							c-0.7,20.7,15.6,38.2,36.3,38.8c10,0.3,19.6-3.3,26.9-10.1c7.3-6.9,11.6-16.2,11.9-26.2c0.3-10-3.3-19.6-10.1-26.9
							c-6.9-7.3-16.2-11.6-26.2-11.9C561.3,70.6,560.9,70.6,560.5,70.6z"/>
					</g>
					<g>
						<path class="st5" d="M560.5,148.7c-0.4,0-0.7,0-1.1,0c-10.8-0.3-20.9-4.8-28.3-12.6c-7.4-7.8-11.4-18.1-11.1-28.9
							c0.6-21.9,18.6-39.4,40.4-39.4c0.4,0,0.7,0,1.1,0c10.8,0.3,20.9,4.8,28.3,12.6c7.4,7.8,11.4,18.1,11.1,28.9h-0.4h0.4
							c-0.3,10.8-4.8,20.9-12.6,28.3C580.8,144.7,570.9,148.7,560.5,148.7z M560.5,68.5c-21.4,0-39.1,17.1-39.7,38.7
							c-0.3,10.6,3.6,20.7,10.9,28.4c7.3,7.7,17.2,12.1,27.8,12.4s20.7-3.6,28.4-10.9s12.1-17.2,12.4-27.8l0,0
							c0.3-10.6-3.6-20.7-10.9-28.4c-7.3-7.7-17.2-12.1-27.8-12.4C561.2,68.5,560.8,68.5,560.5,68.5z"/>
					</g>
					<g>
						<path class="st5" d="M560.5,150.8c-0.3,0-0.6,0-0.9,0c-11.4-0.2-22-4.9-29.9-13.1s-12.1-19-11.9-30.4
							c0.2-11.4,4.9-22,13.1-29.9c8.2-7.9,19-12.1,30.4-11.9s22,4.9,29.9,13.1s12.1,19,11.9,30.4h-0.4h0.4
							c-0.2,11.4-4.9,22-13.1,29.9C582,146.6,571.6,150.8,560.5,150.8z M560.5,66.4c-10.9,0-21.1,4.1-29,11.7
							c-8.1,7.7-12.6,18.2-12.8,29.3c-0.2,11.2,3.9,21.8,11.7,29.8c7.7,8.1,18.2,12.6,29.3,12.8c11.2,0.2,21.8-3.9,29.8-11.7
							c8.1-7.7,12.6-18.2,12.8-29.3c0.2-11.2-3.9-21.8-11.7-29.8c-7.7-8.1-18.2-12.6-29.3-12.8C561,66.4,560.7,66.4,560.5,66.4z"/>
					</g>
					<g>
						<path class="st5" d="M560.5,152.9c-0.2,0-0.4,0-0.6,0c-11.9-0.2-23.1-5-31.4-13.5c-8.3-8.6-12.8-19.8-12.6-31.8
							c0.4-24.6,20.7-44.4,45.3-44s44.4,20.7,44,45.3C604.8,133.2,584.8,152.9,560.5,152.9z M560.5,64.3
							c-23.9,0-43.6,19.3-43.9,43.3c-0.2,11.7,4.2,22.8,12.4,31.2s19.1,13.1,30.9,13.3c11.7,0.2,22.8-4.2,31.2-12.4
							s13.1-19.1,13.3-30.9h0.4h-0.4c0.3-24.2-19.1-44.2-43.3-44.5C560.9,64.3,560.7,64.3,560.5,64.3z"/>
					</g>
					<g>
						<path class="st5" d="M560.5,155c-0.1,0-0.3,0-0.4,0c-12.5-0.1-24.2-5.1-33-14s-13.5-20.7-13.4-33.2s5.1-24.2,14-33
							s20.7-13.5,33.2-13.4s24.2,5.1,33,14s13.5,20.7,13.4,33.2s-5.1,24.2-14,33C584.5,150.2,572.8,155,560.5,155z M560.5,62.2
							c-12.1,0-23.6,4.7-32.2,13.2c-8.8,8.6-13.7,20.1-13.8,32.4s4.6,23.9,13.2,32.7c8.6,8.8,20.1,13.7,32.4,13.8
							c12.3,0.1,23.9-4.6,32.7-13.2s13.7-20.1,13.8-32.4S602,84.8,593.4,76S573.3,62.3,561,62.2C560.8,62.2,560.6,62.2,560.5,62.2z"
							/>
					</g>
					<g>
						<path class="st5" d="M560.5,157.1c-0.1,0-0.1,0-0.2,0c-27-0.1-48.8-22.1-48.7-49.1c0.1-13.1,5.2-25.3,14.5-34.5
							s21.6-14.2,34.6-14.2c27,0.1,48.8,22.1,48.7,49.1l0,0C609.3,135.3,587.4,157.1,560.5,157.1z M560.5,60
							c-12.8,0-24.8,4.9-33.9,14c-9.1,9.1-14.2,21.1-14.2,34c-0.1,26.5,21.4,48.2,47.9,48.3c0.1,0,0.1,0,0.2,0
							c26.4,0,48-21.5,48.1-47.9c0.1-26.5-21.4-48.2-47.9-48.3C560.6,60,560.5,60,560.5,60z"/>
					</g>
					<g>
						<path class="st5" d="M560.5,159.2c-28.1,0-51-22.9-51-51s22.9-51,51-51s51,22.9,51,51S588.6,159.2,560.5,159.2z M560.5,57.9
							c-27.7,0-50.2,22.5-50.2,50.2s22.5,50.2,50.2,50.2s50.2-22.5,50.2-50.2S588.2,57.9,560.5,57.9z"/>
					</g>
				</g>
				<g>
					<g class="st6">
						<path class="st7" d="M573.2,117.2c0.7-1,1.3-2.1,1.8-3.2l-0.6-0.5c-0.9,2.2-2.3,4.2-4.1,5.8l-0.1,0.1l0.6,0.5
							C571.6,119.2,572.4,118.2,573.2,117.2z"/>
						<path class="st7" d="M578.8,112.8c-0.8,3.3-2.5,6.3-5,8.7c-0.9,0.9-2,1.8-3,2.5l0.7,0.5c1-0.7,2-1.5,2.9-2.4
							c0.8-0.8,1.5-1.6,2.1-2.5c1.4-1.9,2.4-4.1,3-6.3L578.8,112.8z"/>
						<path class="st7" d="M576.6,113c-0.8,2.8-2.4,5.3-4.6,7.4c-0.5,0.5-1.1,1-1.7,1.4l0.7,0.5c0.5-0.4,1.1-0.8,1.6-1.3
							c0.9-0.8,1.6-1.7,2.3-2.6c1.1-1.5,1.9-3.2,2.5-4.9L576.6,113z"/>
						<path class="st7" d="M583,112.5c-0.8,4-2.6,7.9-5.6,11.2c-1.7,1.8-3.6,3.3-5.6,4.5l0.7,0.5c2-1.2,3.9-2.7,5.5-4.5
							c0.6-0.7,1.2-1.4,1.8-2.2c2-2.8,3.3-5.8,3.9-9L583,112.5z"/>
						<path class="st7" d="M584.6,115c-1,3.5-2.7,6.8-5.3,9.7c-1.4,1.6-2.9,2.9-4.6,4.1l0.7,0.5c1.6-1.2,3.2-2.5,4.5-4.1
							c0.6-0.7,1.1-1.3,1.6-2.1c1.7-2.4,3-5,3.8-7.7L584.6,115z"/>
						<path class="st8" d="M590.6,122.6c-1.1,2.2-2.4,4.4-4,6.4c-0.9,1.1-1.8,2.2-2.8,3.1l0.6,0.4c1-1,1.9-2,2.8-3.1
							c0.4-0.5,0.7-0.9,1.1-1.4c1.1-1.6,2.1-3.3,3-5L590.6,122.6z"/>
						<path class="st8" d="M593.7,120.7c-1.1,2.8-2.5,5.6-4.4,8.1c-0.3,0.4-0.6,0.8-0.9,1.2c-1.6,2.1-3.5,4-5.5,5.6l0.6,0.5
							c2-1.6,3.8-3.5,5.4-5.6c0.3-0.4,0.6-0.8,0.9-1.2c1.8-2.6,3.3-5.3,4.4-8.1L593.7,120.7z"/>
						<path class="st8" d="M587.5,110.8c-0.5,5.4-2.6,10.6-6.4,15c-2.6,3.1-5.9,5.5-9.5,7.1l0.7,0.5c3.5-1.7,6.7-4.1,9.3-7.1
							c0.5-0.6,1-1.2,1.5-1.9c2.9-4,4.5-8.5,5-13.1L587.5,110.8z"/>
						<path class="st8" d="M589.3,112.8c-0.8,5-2.9,9.9-6.4,14.1c-2.5,3-5.5,5.4-8.9,7.2l0.7,0.5c3.3-1.8,6.3-4.2,8.8-7.2
							c0.5-0.6,0.9-1.1,1.3-1.7c2.7-3.8,4.4-8,5.2-12.4L589.3,112.8z"/>
						<path class="st9" d="M597.8,113.4c-0.9,6.4-3.4,12.5-7.5,17.8c-3.6,4.7-8,8.2-13,10.7l0.7,0.5c4.9-2.5,9.3-6.1,12.9-10.7
							c0.3-0.3,0.5-0.7,0.8-1.1c3.6-5,5.9-10.7,6.8-16.7L597.8,113.4z"/>
						<path class="st7" d="M570.7,117.1c0.3-0.3,0.6-0.7,0.8-1c0.3-0.4,0.5-0.7,0.7-1.1l-0.6-0.4c-0.4,0.8-0.9,1.5-1.5,2.1
							L570.7,117.1z"/>
						<path class="st7" d="M580.5,114.2c-0.9,3-2.5,5.9-4.9,8.4c-0.9,1-1.9,1.8-3,2.6l0.7,0.5c1-0.8,2-1.6,2.9-2.5
							c0.7-0.7,1.4-1.5,1.9-2.3c1.4-1.9,2.4-4,3-6.1L580.5,114.2z"/>
						<path class="st8" d="M590.1,118.3c-1.2,3.4-3,6.7-5.3,9.6c-1.6,1.9-3.3,3.6-5.2,5.1l0.6,0.5c1.9-1.5,3.6-3.1,5.2-5.1
							c0.4-0.5,0.8-1,1.2-1.5c1.8-2.5,3.2-5.3,4.2-8.1L590.1,118.3z"/>
						<path class="st9" d="M598.9,118.2c-1.3,5-3.6,9.7-6.8,14c-2.8,3.7-6.1,6.8-9.8,9.2l0.7,0.5c3.7-2.5,7-5.6,9.8-9.2
							c0.2-0.3,0.4-0.6,0.6-0.9c2.9-4,5-8.4,6.2-13.1L598.9,118.2z"/>
						<path class="st9" d="M597.5,127.6c-1,1.9-2.2,3.8-3.5,5.6c-1,1.3-2.1,2.6-3.2,3.8l0.6,0.4c1.1-1.2,2.2-2.5,3.2-3.8
							c0.2-0.2,0.3-0.5,0.5-0.7c1.1-1.6,2.1-3.2,3-4.9L597.5,127.6z"/>
						<path class="st9" d="M601.2,124.7c-1.4,3.4-3.2,6.6-5.4,9.6c-2.1,2.8-4.5,5.4-7.1,7.6l0.6,0.5c2.6-2.2,5-4.8,7.1-7.6
							c0.1-0.2,0.3-0.3,0.4-0.5c2.1-2.9,3.7-5.9,5-9.1L601.2,124.7z"/>
						<path class="st9" d="M604.9,120.2c-1.5,5.4-3.9,10.5-7.3,15.1c-3.2,4.4-7.1,8.1-11.5,11.1l0.7,0.5c4.4-3,8.3-6.7,11.5-11.1
							c0.1-0.1,0.2-0.2,0.3-0.4c3.3-4.5,5.6-9.5,7.1-14.8L604.9,120.2z"/>
					</g>
					<g class="st6">
						<path class="st7" d="M547.7,99.3c-0.7,1-1.3,2.1-1.8,3.2l0.6,0.5c0.9-2.2,2.3-4.2,4.1-5.8l0.1-0.1l-0.6-0.5
							C549.2,97.4,548.4,98.3,547.7,99.3z"/>
						<path class="st7" d="M542,103.7c0.8-3.3,2.5-6.3,5-8.7c0.9-0.9,2-1.8,3-2.5l-0.7-0.5c-1,0.7-2,1.5-2.9,2.4
							c-0.8,0.8-1.5,1.6-2.1,2.5c-1.4,1.9-2.4,4.1-3,6.3L542,103.7z"/>
						<path class="st7" d="M544.2,103.5c0.8-2.8,2.4-5.3,4.6-7.4c0.5-0.5,1.1-1,1.7-1.4l-0.7-0.5c-0.5,0.4-1.1,0.8-1.6,1.3
							c-0.9,0.8-1.6,1.7-2.3,2.6c-1.1,1.5-1.9,3.2-2.5,4.9L544.2,103.5z"/>
						<path class="st7" d="M537.8,104.1c0.8-4,2.6-7.9,5.6-11.2c1.7-1.8,3.6-3.3,5.6-4.5l-0.7-0.5c-2,1.2-3.9,2.7-5.5,4.5
							c-0.6,0.7-1.2,1.4-1.8,2.2c-2,2.8-3.3,5.8-3.9,9L537.8,104.1z"/>
						<path class="st7" d="M536.2,101.6c1-3.5,2.7-6.8,5.3-9.7c1.4-1.6,2.9-2.9,4.6-4.1l-0.7-0.5c-1.6,1.2-3.2,2.5-4.5,4.1
							c-0.6,0.7-1.1,1.3-1.6,2.1c-1.7,2.4-3,5-3.8,7.7L536.2,101.6z"/>
						<path class="st8" d="M530.2,94c1.1-2.2,2.4-4.4,4-6.4c0.9-1.1,1.8-2.2,2.8-3.1l-0.6-0.4c-1,1-1.9,2-2.8,3.1
							c-0.4,0.5-0.7,0.9-1.1,1.4c-1.1,1.6-2.1,3.3-3,5L530.2,94z"/>
						<path class="st8" d="M527.1,95.9c1.1-2.8,2.5-5.6,4.4-8.1c0.3-0.4,0.6-0.8,0.9-1.2c1.6-2.1,3.5-4,5.5-5.6l-0.6-0.5
							c-2,1.6-3.8,3.5-5.4,5.6c-0.3,0.4-0.6,0.8-0.9,1.2c-1.8,2.6-3.3,5.3-4.4,8.1L527.1,95.9z"/>
						<path class="st8" d="M533.3,105.8c0.5-5.4,2.6-10.6,6.4-15c2.6-3.1,5.9-5.5,9.5-7.1l-0.7-0.5c-3.5,1.7-6.7,4.1-9.3,7.1
							c-0.5,0.6-1,1.2-1.5,1.9c-2.9,4-4.5,8.5-5,13.1L533.3,105.8z"/>
						<path class="st8" d="M531.5,103.8c0.8-5,2.9-9.9,6.4-14.1c2.5-3,5.5-5.4,8.9-7.2l-0.7-0.5c-3.3,1.8-6.3,4.2-8.8,7.2
							c-0.5,0.6-0.9,1.1-1.3,1.7c-2.7,3.8-4.4,8-5.2,12.4L531.5,103.8z"/>
						<path class="st9" d="M523.1,103.2c0.9-6.4,3.4-12.5,7.5-17.8c3.6-4.7,8-8.2,13-10.7l-0.7-0.5c-4.9,2.5-9.3,6.1-12.9,10.7
							c-0.3,0.3-0.5,0.7-0.8,1.1c-3.6,5-5.9,10.7-6.8,16.7L523.1,103.2z"/>
						<path class="st7" d="M550.1,99.5c-0.3,0.3-0.6,0.7-0.8,1c-0.3,0.4-0.5,0.7-0.7,1.1l0.6,0.4c0.4-0.8,0.9-1.5,1.5-2.1
							L550.1,99.5z"/>
						<path class="st7" d="M540.3,102.4c0.9-3,2.5-5.9,4.9-8.4c0.9-1,1.9-1.8,3-2.6l-0.7-0.5c-1,0.8-2,1.6-2.9,2.5
							c-0.7,0.7-1.4,1.5-1.9,2.3c-1.4,1.9-2.4,4-3,6.1L540.3,102.4z"/>
						<path class="st8" d="M530.7,98.3c1.2-3.4,3-6.7,5.3-9.6c1.6-1.9,3.3-3.6,5.2-5.1l-0.6-0.5c-1.9,1.5-3.6,3.1-5.2,5.1
							c-0.4,0.5-0.8,1-1.2,1.5c-1.8,2.5-3.2,5.3-4.2,8.1L530.7,98.3z"/>
						<path class="st9" d="M521.9,98.4c1.3-5,3.6-9.7,6.8-14c2.8-3.7,6.1-6.8,9.8-9.2l-0.7-0.5c-3.7,2.5-7,5.6-9.8,9.2
							c-0.2,0.3-0.4,0.6-0.6,0.9c-2.9,4-5,8.4-6.2,13.1L521.9,98.4z"/>
						<path class="st9" d="M523.3,89c1-1.9,2.2-3.8,3.5-5.6c1-1.3,2.1-2.6,3.2-3.8l-0.6-0.4c-1.1,1.2-2.2,2.5-3.2,3.8
							c-0.2,0.2-0.3,0.5-0.5,0.7c-1.1,1.6-2.1,3.2-3,4.9L523.3,89z"/>
						<path class="st9" d="M519.6,91.9c1.4-3.4,3.2-6.6,5.4-9.6c2.1-2.8,4.5-5.4,7.1-7.6l-0.6-0.5c-2.6,2.2-5,4.8-7.1,7.6
							c-0.1,0.2-0.3,0.3-0.4,0.5c-2.1,2.9-3.7,5.9-5,9.1L519.6,91.9z"/>
						<path class="st9" d="M515.9,96.4c1.5-5.4,3.9-10.5,7.3-15.1c3.2-4.4,7.1-8.1,11.5-11.1l-0.7-0.5c-4.4,3-8.3,6.7-11.5,11.1
							c-0.1,0.1-0.2,0.2-0.3,0.4c-3.3,4.5-5.6,9.5-7.1,14.8L515.9,96.4z"/>
					</g>
				</g>
				<g>
					<path class="st2" d="M560.5,119.9c-6.5,0-11.7-5.3-11.7-11.7c0-6.5,5.3-11.7,11.7-11.7c6.5,0,11.7,5.3,11.7,11.7
						C572.2,114.7,567,119.9,560.5,119.9z"/>
					<circle class="st10" cx="560.5" cy="108.2" r="10.3"/>
					<g class="st11">
						
							<image style="overflow:visible;enable-background:new    ;" width="93" height="93" xlink:href="527C7769.png"  transform="matrix(1 0 0 1 513.7 61.8)">
						</image>
					</g>
					<circle class="st3" cx="560.5" cy="108.2" r="3.2"/>
					<circle class="st12" cx="560.5" cy="108.2" r="0.8"/>
				</g>
			</g>
			<g id="handler">
				<g>
					<g>
						<g>
							<path class="st13" d="M608.6,62.6l-7.6,52.6c-0.4,2.8-2.4,6.5-4.5,8.4l-8,7.2"/>
						</g>
						<g>
							<path class="st14" d="M608.1,62.6l-7.6,52.6c-0.4,2.8-2.4,6.5-4.5,8.4l-8,7.2"/>
						</g>
						<g>
							<path class="st15" d="M607.9,62.5l-7.6,52.6c-0.4,2.8-2.4,6.5-4.5,8.4l-8,7.2"/>
						</g>
					</g>
					<g>
						<path class="st16" d="M585.7,134.2l-1.5-1.8c-0.4-0.5-0.3-1.2,0.2-1.6l1.9-1.5c0.5-0.4,1.2-0.3,1.6,0.2l1.5,1.8
							c0.4,0.5,0.3,1.2-0.2,1.6l-1.9,1.5C586.8,134.8,586.1,134.7,585.7,134.2z"/>
						<path class="st17" d="M585.4,133.9l-1.5-1.8c-0.4-0.5-0.3-1.2,0.2-1.6l1.9-1.5c0.5-0.4,1.2-0.3,1.6,0.2l1.5,1.8
							c0.4,0.5,0.3,1.2-0.2,1.6l-1.9,1.5C586.6,134.5,585.8,134.4,585.4,133.9z"/>
						<path class="st18" d="M584.8,131.2l1.7-1.4c0.5-0.4,1.1-0.3,1.5,0.2l-0.2-0.3c-0.4-0.5-1-0.5-1.5-0.2l-1.7,1.4
							c-0.5,0.4-0.5,1-0.2,1.5l0.2,0.3C584.3,132.2,584.3,131.5,584.8,131.2z"/>
					</g>
				</g>
				<g>
					<path class="st19" d="M611.7,66.4h-7.6c-0.7,0-1.3-0.6-1.3-1.3v-4.4c0-0.7,0.6-1.3,1.3-1.3h7.6c0.7,0,1.3,0.6,1.3,1.3v4.4
						C613.1,65.8,612.5,66.4,611.7,66.4z"/>
					<path class="st2" d="M604.1,64.7c-0.5,0-0.8-0.4-0.8-0.8v-4.4c0-0.5,0.4-0.8,0.8-0.8h7.6c0.5,0,0.8,0.4,0.8,0.8v4.4
						c0,0.5-0.4,0.8-0.8,0.8H604.1z"/>
					<path class="st19" d="M611.7,58.6h-7.6c-0.5,0-0.8,0.4-0.8,0.8v0.7c0-0.5,0.4-0.8,0.8-0.8h7.6c0.5,0,0.8,0.4,0.8,0.8v-0.7
						C612.6,59,612.2,58.6,611.7,58.6z"/>
					<path class="st20" d="M611.7,58.1h-7.6c-0.7,0-1.3,0.6-1.3,1.3v4.4c0,0.7,0.6,1.3,1.3,1.3h7.6c0.7,0,1.3-0.6,1.3-1.3v-4.4
						C613.1,58.7,612.5,58.1,611.7,58.1z M612.6,63.9c0,0.5-0.4,0.8-0.8,0.8h-7.6c-0.5,0-0.8-0.4-0.8-0.8v-4.4
						c0-0.5,0.4-0.8,0.8-0.8h7.6c0.5,0,0.8,0.4,0.8,0.8V63.9z"/>
				</g>
			</g>
		</g>
	</g>
</g>
<g>
	<path class="st21" d="M4.4,210.5v-34.2h9c4.6,0,8.3,2,11,5.1c2.7,3.1,4.2,7.4,4.2,11.9c0,4.7-1.5,9-4.2,12.1s-6.5,5-11.2,5H4.4z
		 M13.3,209c4.1,0,7.5-1.7,9.8-4.4c2.4-2.8,3.8-6.8,3.8-11.1c0-4.2-1.4-8.1-3.8-10.9c-2.4-2.8-5.8-4.6-9.7-4.6H6.2V209H13.3z"/>
	<path class="st21" d="M35.1,180.2v3.5h-1.7v-3.5H35.1z M33.4,190.2h1.7v20.2h-1.7V190.2z"/>
	<path class="st21" d="M40.9,205.6c0.5,1.3,1,2,2,2.8c1.1,0.8,2.5,1.4,4.5,1.4c2.4,0,3.7-0.7,4.7-1.5c0.8-0.7,1.1-1.6,1.1-2.4
		c0-0.9-0.3-1.8-0.9-2.5c-0.9-1-2.3-1.8-5.1-2.6c-2.8-0.7-4.3-1.6-5.3-2.7c-0.9-1-1.2-2-1.2-2.9c0-1.5,0.6-2.8,1.6-3.7
		s2.7-1.6,4.9-1.6c1.5,0,2.9,0.3,4,0.9s2,1.5,2.7,2.6l-1.4,0.8c-0.6-1-1.3-1.7-2.1-2.1c-0.9-0.5-2-0.7-3.2-0.7c-1.7,0-3,0.5-3.8,1.3
		c-0.7,0.6-1.1,1.5-1.1,2.6c0,0.6,0.2,1.3,0.8,1.9c0.7,0.8,2,1.6,4.4,2.2c3.2,0.8,4.9,1.8,5.9,3s1.4,2.4,1.4,3.5
		c0,1.1-0.5,2.4-1.6,3.5c-1.2,1.1-2.9,1.9-5.8,1.9c-2.4,0-4.2-0.7-5.6-1.7c-1.4-1-2.3-2.4-2.7-3.9H40.9z"/>
	<path class="st21" d="M60.7,208.1c-1.8-1.9-3-4.6-3-7.9c0.1-2.9,1.2-5.5,3.1-7.4c1.9-1.8,4.6-2.9,7.3-2.9c1.9,0,3.8,0.7,5.3,1.7
		c1.5,1.1,2.8,2.6,3.6,4.4h-1.8c-0.7-1.3-1.6-2.4-2.7-3.2c-1.3-0.9-2.8-1.5-4.3-1.5c-2.2,0-4.4,0.9-6.1,2.5
		c-1.4,1.3-2.6,3.9-2.6,6.3c0,2.8,1,5.3,2.5,6.9c1.6,1.6,3.8,2.7,6.2,2.7c1.6,0,3.2-0.6,4.6-1.5c1.1-0.8,2-2,2.7-3.5h1.8
		c-0.8,1.9-2,3.6-3.6,4.8s-3.4,1.8-5.5,1.8C65.2,211.3,62.6,210,60.7,208.1z"/>
	<path class="st21" d="M98.1,192.9c2,1.9,3.4,4.6,3.4,7.9c0,3.3-1.2,5.9-3.2,7.7s-4.7,2.8-7.5,2.8c-3.2,0-5.9-1.2-7.8-3.1
		c-1.9-1.9-3-4.6-3-7.4c0-3.3,1.3-6,3.3-7.9c2-1.8,4.7-2.9,7.4-2.9C93.4,189.9,96,191,98.1,192.9z M84.4,193.9
		c-1.7,1.6-2.8,3.9-2.8,6.9c0,2.5,0.9,4.8,2.5,6.3c1.6,1.6,3.9,2.7,6.6,2.7c2.4,0,4.7-0.8,6.4-2.4c1.6-1.5,2.7-3.7,2.7-6.6
		c0-2.9-1.2-5.3-2.8-6.8c-1.8-1.6-4.1-2.6-6.2-2.6C88.4,191.4,86.1,192.3,84.4,193.9z"/>
	<path class="st21" d="M120.2,190.2h1.7l-8.7,21h-1.3l-8.9-21h1.7l7.8,18.4h0.1L120.2,190.2z"/>
	<path class="st21" d="M126.6,208.1c-1.8-1.9-3-4.6-3-7.9c0.1-2.9,1.2-5.5,3.1-7.4c1.9-1.8,4.6-2.9,7.3-2.9c3.3,0,5.7,1.2,7.2,3.1
		c1.5,1.9,2.3,4.6,2.3,7.5h-18.3c0.1,2.8,1,5,2.5,6.5c1.6,1.6,3.8,2.7,6.2,2.7c2.4,0,4.6-1,6.2-2.7c0.5-0.5,1-1.2,1.4-1.9h1.8
		c-0.5,1.1-1.2,2.1-2,3c-1.9,1.9-4.5,3.1-7.4,3.1S128.4,210,126.6,208.1z M127.8,193.9c-1.4,1.3-2.1,3.2-2.5,5.1h16.4
		c-0.3-2.1-0.9-4-2.2-5.4c-1.3-1.3-3.1-2.2-5.5-2.2C131.8,191.4,129.5,192.3,127.8,193.9z"/>
	<path class="st21" d="M148,190.2h1.7v5.2h0.1c1.2-2.9,3.6-5.5,7.8-5.5c0.7,0,1.3,0.1,1.8,0.2v1.5c-0.6-0.2-1.5-0.2-1.8-0.2
		c-3.3,0-5.8,2.4-6.9,4.8c-0.8,1.8-0.9,2.5-1.1,3.6v10.7H148V190.2z"/>
	<path class="st21" d="M181.9,210.5c-3.2,0-7.4,0.4-7.4-7.3v-11.1H171v-1.4h3.5v-6.1h1.7v6.1h4.6v1.4h-4.6v11.1
		c0,6.1,3.2,5.8,5.7,5.8V210.5z"/>
	<path class="st21" d="M185.4,175.6h1.7V194h0.1c1.9-2.4,4.1-4,8.2-4c5.7,0,8.5,2.6,8.5,6.7v13.8h-1.7v-13.8c0-3.2-2.4-5.3-6.8-5.3
		c-4.5,0-6.3,1.6-8.3,4.6v14.5h-1.7V175.6z"/>
	<path class="st21" d="M211.4,208.1c-1.8-1.9-3-4.6-3-7.9c0.1-2.9,1.2-5.5,3.1-7.4c1.9-1.8,4.6-2.9,7.3-2.9c3.3,0,5.7,1.2,7.2,3.1
		c1.5,1.9,2.3,4.6,2.3,7.5H210c0.1,2.8,1,5,2.5,6.5c1.6,1.6,3.8,2.7,6.2,2.7c2.4,0,4.6-1,6.2-2.7c0.5-0.5,1-1.2,1.4-1.9h1.8
		c-0.5,1.1-1.2,2.1-2,3c-1.9,1.9-4.5,3.1-7.4,3.1S213.3,210,211.4,208.1z M212.7,193.9c-1.4,1.3-2.1,3.2-2.5,5.1h16.4
		c-0.3-2.1-0.9-4-2.2-5.4c-1.3-1.3-3.1-2.2-5.5-2.2C216.6,191.4,214.3,192.3,212.7,193.9z"/>
	<path class="st21" d="M265.1,207.9h0.1l6.4-17.7h1.7l-7.6,21h-1.2l-6.9-17.7h-0.1l-6.1,17.7h-1.2l-8.3-21h1.8l7,17.7h0.1l6-17.7
		h1.2L265.1,207.9z"/>
	<path class="st21" d="M293.3,192.9c2,1.9,3.4,4.6,3.4,7.9c0,3.3-1.2,5.9-3.2,7.7s-4.7,2.8-7.5,2.8c-3.2,0-5.9-1.2-7.8-3.1
		c-1.9-1.9-3-4.6-3-7.4c0-3.3,1.3-6,3.3-7.9c2-1.8,4.7-2.9,7.4-2.9C288.6,189.9,291.3,191,293.3,192.9z M279.7,193.9
		c-1.7,1.6-2.8,3.9-2.8,6.9c0,2.5,0.9,4.8,2.5,6.3c1.6,1.6,3.9,2.7,6.6,2.7c2.4,0,4.7-0.8,6.4-2.4c1.6-1.5,2.7-3.7,2.7-6.6
		c0-2.9-1.2-5.3-2.8-6.8c-1.8-1.6-4.1-2.6-6.2-2.6C283.7,191.4,281.4,192.3,279.7,193.9z"/>
	<path class="st21" d="M301.4,190.2h1.7v5.2h0.1c1.2-2.9,3.6-5.5,7.8-5.5c0.7,0,1.3,0.1,1.8,0.2v1.5c-0.6-0.2-1.5-0.2-1.8-0.2
		c-3.3,0-5.8,2.4-6.9,4.8c-0.8,1.8-0.9,2.5-1.1,3.6v10.7h-1.7V190.2z"/>
	<path class="st21" d="M316.4,175.6h1.7v34.9h-1.7V175.6z"/>
	<path class="st21" d="M325.4,208.4c-1.6-1.8-2.5-4.6-2.5-7.8c0-3.1,0.9-5.8,2.6-7.7c1.7-1.9,4.1-3,7.4-3c1.5,0,2.9,0.4,4,1
		c1.1,0.6,2.1,1.5,2.8,2.6h0.1v-18h1.7v34.9h-1.7v-3.3h-0.1c-0.7,1.1-1.5,2-2.5,2.7c-1.2,0.9-2.6,1.3-4.4,1.3
		C329.5,211.3,327,210.2,325.4,208.4z M336.5,208.7c1.4-0.9,2.6-2.4,3.3-4.2v-8c-0.8-1.8-2.1-3.3-3.7-4.1c-1-0.6-2.1-0.9-3.3-0.9
		c-2.7,0-4.8,1-6.2,2.6c-1.4,1.6-2.1,3.9-2.1,6.6c0,2.8,0.7,5.1,2,6.7c1.4,1.6,3.4,2.5,6.2,2.5C334.2,209.8,335.4,209.4,336.5,208.7
		z"/>
	<path class="st21" d="M376.9,192.9c2,1.9,3.4,4.6,3.4,7.9c0,3.3-1.2,5.9-3.2,7.7s-4.7,2.8-7.5,2.8c-3.2,0-5.9-1.2-7.8-3.1
		c-1.9-1.9-3-4.6-3-7.4c0-3.3,1.3-6,3.3-7.9c2-1.8,4.7-2.9,7.4-2.9C372.2,189.9,374.8,191,376.9,192.9z M363.2,193.9
		c-1.7,1.6-2.8,3.9-2.8,6.9c0,2.5,0.9,4.8,2.5,6.3c1.6,1.6,3.9,2.7,6.6,2.7c2.4,0,4.7-0.8,6.4-2.4c1.6-1.5,2.7-3.7,2.7-6.6
		c0-2.9-1.2-5.3-2.8-6.8c-1.8-1.6-4.1-2.6-6.2-2.6C367.2,191.4,364.9,192.3,363.2,193.9z"/>
	<path class="st21" d="M382.3,190.2h3.5v-7.5c0-3.6,1.6-5.1,2.7-5.9c1.2-0.9,2.3-1.3,4.7-1.3v1.5c-2,0-2.9,0.4-3.7,1
		c-0.8,0.6-2,1.8-2,4.7v7.5h5.2v1.4h-5.2v18.8h-1.7v-18.8h-3.5V190.2z"/>
	<path class="st21" d="M425.8,220.3c-2.3,1-5.4,1.4-9.1,1.4c-1.5,0-4.1-0.4-6.2-1.3c-2.1-0.9-3.9-2.4-3.9-4.5c0-1.6,0.8-2.9,2.5-3.9
		v-0.1c-2-1.1-2.6-2.7-2.6-4c0-2.4,1.3-3.7,3.2-4.6v-0.1c-1.3-1.3-1.9-3-1.9-5c0-2.1,1.1-4.2,3-5.7c1.8-1.5,4.3-2.5,6.9-2.5
		c1.7,0,3.4,0.4,4.8,1.1h7v1.5h-4.7v0.1c1.7,1.5,2.8,3.4,2.8,5.5c0,2.4-1.1,4.4-2.8,5.8s-4.2,2.3-7.1,2.3c-2.7,0-5-0.7-6.7-1.9
		c-1.7,0.6-2.8,1.7-2.8,3.6c0,1.6,1.1,3.7,6.3,3.7h8c5.6,0,6.9,1.9,6.9,4C429.4,217.8,428,219.3,425.8,220.3z M422.5,213h-8
		c-1.4,0-2.5-0.2-3.5-0.4c-1.8,0.7-2.8,2-2.8,3.3c0,1.6,1.5,2.7,3.3,3.4c1.8,0.7,3.9,1,5.2,1c3.2,0,5.9-0.4,7.9-1.1
		c1.9-0.8,3.1-1.9,3.1-3.6C427.7,214.2,426.7,213,422.5,213z M411.7,202.9c1.4,1.2,3.5,1.8,5.9,1.8c2.4,0,4.4-0.7,5.9-1.8
		c1.4-1.2,2.3-2.8,2.3-4.8c0-1.8-1-3.5-2.5-4.7c-1.5-1.2-3.6-2-5.7-2c-2.2,0-4.2,0.8-5.7,2s-2.5,2.9-2.5,4.7
		C409.4,200.1,410.3,201.7,411.7,202.9z"/>
	<path class="st21" d="M449.5,192.9c2,1.9,3.4,4.6,3.4,7.9c0,3.3-1.2,5.9-3.2,7.7s-4.7,2.8-7.5,2.8c-3.2,0-5.9-1.2-7.8-3.1
		c-1.9-1.9-3-4.6-3-7.4c0-3.3,1.3-6,3.3-7.9c2-1.8,4.7-2.9,7.4-2.9C444.8,189.9,447.5,191,449.5,192.9z M435.8,193.9
		c-1.7,1.6-2.8,3.9-2.8,6.9c0,2.5,0.9,4.8,2.5,6.3c1.6,1.6,3.9,2.7,6.6,2.7c2.4,0,4.7-0.8,6.4-2.4c1.6-1.5,2.7-3.7,2.7-6.6
		c0-2.9-1.2-5.3-2.8-6.8c-1.8-1.6-4.1-2.6-6.2-2.6C439.8,191.4,437.5,192.3,435.8,193.9z"/>
	<path class="st21" d="M474.2,192.9c2,1.9,3.4,4.6,3.4,7.9c0,3.3-1.2,5.9-3.2,7.7s-4.7,2.8-7.5,2.8c-3.2,0-5.9-1.2-7.8-3.1
		c-1.9-1.9-3-4.6-3-7.4c0-3.3,1.3-6,3.3-7.9c2-1.8,4.7-2.9,7.4-2.9C469.5,189.9,472.1,191,474.2,192.9z M460.5,193.9
		c-1.7,1.6-2.8,3.9-2.8,6.9c0,2.5,0.9,4.8,2.5,6.3c1.6,1.6,3.9,2.7,6.6,2.7c2.4,0,4.7-0.8,6.4-2.4c1.6-1.5,2.7-3.7,2.7-6.6
		c0-2.9-1.2-5.3-2.8-6.8c-1.8-1.6-4.1-2.6-6.2-2.6C464.5,191.4,462.2,192.3,460.5,193.9z"/>
	<path class="st21" d="M483.4,208.4c-1.6-1.8-2.5-4.6-2.5-7.8c0-3.1,0.9-5.8,2.6-7.7c1.7-1.9,4.1-3,7.4-3c1.5,0,2.9,0.4,4,1
		c1.1,0.6,2.1,1.5,2.8,2.6h0.1v-18h1.7v34.9h-1.7v-3.3h-0.1c-0.7,1.1-1.5,2-2.5,2.7c-1.2,0.9-2.6,1.3-4.4,1.3
		C487.5,211.3,485,210.2,483.4,208.4z M494.5,208.7c1.4-0.9,2.6-2.4,3.3-4.2v-8c-0.8-1.8-2.1-3.3-3.7-4.1c-1-0.6-2.1-0.9-3.3-0.9
		c-2.7,0-4.8,1-6.2,2.6c-1.4,1.6-2.1,3.9-2.1,6.6c0,2.8,0.7,5.1,2,6.7c1.4,1.6,3.4,2.5,6.2,2.5C492.2,209.8,493.4,209.4,494.5,208.7
		z"/>
	<path class="st21" d="M518.2,190.2h1.7v3.7h0.1c1.9-2.4,4.1-4,8.2-4c5.7,0,8.5,2.6,8.5,6.7v13.8H535v-13.8c0-3.2-2.4-5.3-6.8-5.3
		c-4.5,0-6.3,1.6-8.3,4.6v14.5h-1.7V190.2z"/>
	<path class="st21" d="M559.3,192.9c2,1.9,3.4,4.6,3.4,7.9c0,3.3-1.2,5.9-3.2,7.7s-4.7,2.8-7.5,2.8c-3.2,0-5.9-1.2-7.8-3.1
		c-1.9-1.9-3-4.6-3-7.4c0-3.3,1.3-6,3.3-7.9c2-1.8,4.7-2.9,7.4-2.9C554.6,189.9,557.2,191,559.3,192.9z M545.6,193.9
		c-1.7,1.6-2.8,3.9-2.8,6.9c0,2.5,0.9,4.8,2.5,6.3c1.6,1.6,3.9,2.7,6.6,2.7c2.4,0,4.7-0.8,6.4-2.4c1.6-1.5,2.7-3.7,2.7-6.6
		c0-2.9-1.2-5.3-2.8-6.8c-1.8-1.6-4.1-2.6-6.2-2.6C549.6,191.4,547.3,192.3,545.6,193.9z"/>
	<path class="st21" d="M569,180.2v3.5h-1.7v-3.5H569z M567.3,190.2h1.7v20.2h-1.7V190.2z"/>
	<path class="st21" d="M574.8,205.6c0.5,1.3,1,2,2,2.8c1.1,0.8,2.5,1.4,4.5,1.4c2.4,0,3.7-0.7,4.7-1.5c0.8-0.7,1.1-1.6,1.1-2.4
		c0-0.9-0.3-1.8-0.9-2.5c-0.9-1-2.3-1.8-5.1-2.6s-4.3-1.6-5.3-2.7c-0.9-1-1.2-2-1.2-2.9c0-1.5,0.6-2.8,1.6-3.7
		c1.1-1,2.7-1.6,4.9-1.6c1.5,0,2.9,0.3,4,0.9s2,1.5,2.7,2.6l-1.4,0.8c-0.6-1-1.3-1.7-2.1-2.1c-0.9-0.5-2-0.7-3.2-0.7
		c-1.7,0-3,0.5-3.8,1.3c-0.7,0.6-1.1,1.5-1.1,2.6c0,0.6,0.2,1.3,0.8,1.9c0.7,0.8,2,1.6,4.4,2.2c3.2,0.8,4.9,1.8,5.9,3
		c1,1.1,1.4,2.4,1.4,3.5c0,1.1-0.5,2.4-1.6,3.5c-1.2,1.1-2.9,1.9-5.8,1.9c-2.4,0-4.2-0.7-5.6-1.7c-1.4-1-2.3-2.4-2.7-3.9H574.8z"/>
	<path class="st21" d="M594.6,208.1c-1.8-1.9-3-4.6-3-7.9c0.1-2.9,1.2-5.5,3.1-7.4c1.9-1.8,4.6-2.9,7.3-2.9c3.3,0,5.7,1.2,7.2,3.1
		c1.5,1.9,2.3,4.6,2.3,7.5h-18.3c0.1,2.8,1,5,2.5,6.5c1.6,1.6,3.8,2.7,6.2,2.7c2.4,0,4.6-1,6.2-2.7c0.5-0.5,1-1.2,1.4-1.9h1.8
		c-0.5,1.1-1.2,2.1-2,3c-1.9,1.9-4.5,3.1-7.4,3.1S596.5,210,594.6,208.1z M595.9,193.9c-1.4,1.3-2.1,3.2-2.5,5.1h16.4
		c-0.3-2.1-0.9-4-2.2-5.4c-1.3-1.3-3.1-2.2-5.5-2.2C599.8,191.4,597.6,192.3,595.9,193.9z"/>
</g>
</svg>
